<svg xmlns="http://www.w3.org/2000/svg" xmlns:xlink="http://www.w3.org/1999/xlink" width="500" zoomAndPan="magnify" viewBox="0 0 375 374.999991" height="500" preserveAspectRatio="xMidYMid meet" version="1.0"><defs><g/><clipPath id="id1"><path d="M 47.90625 47.90625 L 326.867188 47.90625 L 326.867188 326.867188 L 47.90625 326.867188 Z M 47.90625 47.90625 " clip-rule="nonzero"/></clipPath><clipPath id="id2"><path d="M 112.679688 118.917969 L 236.523438 118.917969 L 236.523438 261.527344 L 112.679688 261.527344 Z M 112.679688 118.917969 " clip-rule="nonzero"/></clipPath><clipPath id="id3"><path d="M 224.664062 138.679688 L 288.460938 138.679688 L 288.460938 196.222656 L 224.664062 196.222656 Z M 224.664062 138.679688 " clip-rule="nonzero"/></clipPath></defs><rect x="-37.5" width="450" fill="#ffffff" y="-37.499999" height="449.999989" fill-opacity="1"/><rect x="-37.5" width="450" fill="#ffffff" y="-37.499999" height="449.999989" fill-opacity="1"/><rect x="-37.5" width="450" fill="#ffffff" y="-37.499999" height="449.999989" fill-opacity="1"/><rect x="-37.5" width="450" fill="#ffffff" y="-37.499999" height="449.999989" fill-opacity="1"/><g clip-path="url(#id1)"><path fill="#033d68" d="M 187.339844 326.867188 C 110.496094 326.867188 47.90625 264.277344 47.90625 187.339844 C 47.90625 110.402344 110.496094 47.90625 187.339844 47.90625 C 264.183594 47.90625 326.769531 110.496094 326.769531 187.339844 C 326.867188 264.277344 264.277344 326.867188 187.339844 326.867188 Z M 187.339844 50.265625 C 111.722656 50.265625 50.269531 111.722656 50.269531 187.339844 C 50.269531 262.957031 111.816406 324.503906 187.339844 324.503906 C 262.859375 324.503906 324.503906 262.957031 324.503906 187.339844 C 324.503906 111.722656 262.957031 50.265625 187.339844 50.265625 Z M 187.339844 50.265625 " fill-opacity="1" fill-rule="nonzero"/></g><g fill="#033d68" fill-opacity="1"><g transform="translate(94.796337, 134.079945)"><g><path d="M -3.820312 -18.214844 C -6.625 -15.96875 -9.164062 -14.320312 -11.777344 -16.390625 C -13.058594 -17.40625 -14.449219 -19.359375 -12.480469 -21.839844 C -10.222656 -24.691406 -5.5 -25.925781 -2.285156 -22.574219 L -4.152344 -28.21875 C -6.582031 -27.890625 -9.429688 -26.445312 -11.851562 -23.386719 C -15.226562 -19.125 -15.5 -14.703125 -12.179688 -12.070312 C -9.851562 -10.230469 -5.945312 -9.519531 -0.691406 -13.738281 C 2.503906 -16.269531 4.417969 -17.390625 6.558594 -15.695312 C 7.761719 -14.742188 9.726562 -12.332031 7.285156 -9.25 C 5.003906 -6.375 0.195312 -5.078125 -3.21875 -8.292969 L -1.261719 -2.703125 C 1.214844 -3.039062 4.34375 -4.730469 6.890625 -7.945312 C 10.535156 -12.546875 10.316406 -17.269531 6.996094 -19.898438 C 5.011719 -21.472656 1.523438 -22.492188 -3.820312 -18.214844 Z M -3.820312 -18.214844 "/></g></g></g><g fill="#033d68" fill-opacity="1"><g transform="translate(109.46462, 115.719706)"><g><path d="M -4.140625 -26.550781 L -14.15625 -18.570312 L -14.050781 -18.441406 C -12.878906 -19.160156 -11.738281 -19.601562 -10.988281 -18.664062 L 1.1875 -3.378906 C 1.9375 -2.4375 1.253906 -1.425781 0.289062 -0.441406 L 0.390625 -0.3125 L 8.449219 -6.734375 L 8.347656 -6.863281 C 7.171875 -6.140625 6.03125 -5.703125 5.285156 -6.640625 L 1.355469 -11.570312 L 4.09375 -13.753906 C 9.414062 -17.992188 11.035156 -23.078125 7.792969 -27.144531 C 4.800781 -30.902344 0.761719 -30.457031 -4.140625 -26.550781 Z M 4.984375 -15.101562 C 3.652344 -14.039062 2.136719 -13.214844 0.546875 -12.585938 L -7.746094 -22.996094 L -5.269531 -24.96875 C -1.09375 -28.292969 2.359375 -25.671875 4.832031 -22.570312 C 7.988281 -18.605469 7.277344 -16.929688 4.984375 -15.101562 Z M 4.984375 -15.101562 "/></g></g></g><g fill="#033d68" fill-opacity="1"><g transform="translate(129.644284, 99.527137)"><g><path d="M 3.765625 -27.644531 C -3.046875 -24.660156 -6.320312 -18.167969 -3.308594 -11.292969 C -0.296875 -4.421875 6.695312 -2.421875 13.507812 -5.40625 C 20.289062 -8.378906 23.558594 -14.871094 20.546875 -21.746094 C 17.539062 -28.617188 10.546875 -30.617188 3.765625 -27.644531 Z M 14.578125 -6.53125 C 9.753906 -4.417969 3.476562 -9.605469 0.8125 -15.683594 C -1.382812 -20.695312 -0.699219 -25.035156 2.660156 -26.507812 C 7.488281 -28.621094 13.765625 -23.433594 16.414062 -17.386719 C 18.609375 -12.375 17.9375 -8.003906 14.578125 -6.53125 Z M 14.578125 -6.53125 "/></g></g></g><g fill="#033d68" fill-opacity="1"><g transform="translate(157.968659, 87.584578)"><g><path d="M 7.910156 -3.070312 L 5.097656 -22.410156 C 4.925781 -23.597656 6.027344 -24.128906 7.355469 -24.492188 L 7.332031 -24.65625 L -2.867188 -23.171875 L -2.839844 -23.007812 C -1.464844 -23.039062 -0.257812 -22.84375 -0.0820312 -21.65625 L 2.730469 -2.316406 C 2.902344 -1.128906 1.800781 -0.597656 0.472656 -0.238281 L 0.496094 -0.0703125 L 10.691406 -1.554688 L 10.667969 -1.71875 C 9.292969 -1.6875 8.082031 -1.882812 7.910156 -3.070312 Z M 25.675781 -3.734375 C 23.835938 -4.34375 22.800781 -4.96875 20.125 -7.375 L 10.835938 -16.101562 L 15.238281 -21.730469 C 17.746094 -24.890625 19.199219 -26.011719 21.089844 -26.457031 L 21.128906 -26.664062 L 14.195312 -25.65625 L 14.160156 -25.449219 C 17.101562 -25.605469 16.878906 -24.832031 16.335938 -24.148438 L 6.855469 -11.949219 L 8.339844 -12.167969 L 17.839844 -3.167969 L 17.921875 -2.605469 Z M 25.675781 -3.734375 "/></g></g></g><g fill="#033d68" fill-opacity="1"><g transform="translate(185.538326, 83.611735)"><g><path d="M 17.375 -21.832031 C 9.992188 -22.75 3.859375 -18.84375 2.933594 -11.398438 C 2.003906 -3.949219 6.992188 1.34375 14.371094 2.261719 C 21.71875 3.175781 27.851562 -0.730469 28.777344 -8.175781 C 29.707031 -15.621094 24.722656 -20.914062 17.375 -21.832031 Z M 15.867188 1.84375 C 10.640625 1.191406 7.898438 -6.476562 8.71875 -13.0625 C 9.394531 -18.488281 12.203125 -21.871094 15.84375 -21.417969 C 21.074219 -20.765625 23.8125 -13.097656 22.996094 -6.542969 C 22.320312 -1.117188 19.507812 2.296875 15.867188 1.84375 Z M 15.867188 1.84375 "/></g></g></g><g fill="#033d68" fill-opacity="1"><g transform="translate(216.523006, 88.623426)"><g><path d="M 8.882812 -21.625 L 8.828125 -21.46875 C 10.160156 -20.828125 11.140625 -20.097656 10.746094 -18.964844 L 4.070312 0.183594 C 2.574219 4.464844 1.085938 6.207031 -2.484375 6.621094 L -2.445312 6.707031 C 1.707031 6.953125 5.871094 5.542969 8.574219 3.765625 C 8.769531 2.703125 9.230469 1.277344 9.945312 -0.769531 L 15.6875 -17.238281 C 16.082031 -18.375 17.304688 -18.335938 18.652344 -18.042969 L 18.707031 -18.199219 Z M 8.882812 -21.625 "/></g></g></g><g fill="#033d68" fill-opacity="1"><g transform="translate(230.746324, 93.370087)"><g><path d="M 22.339844 4.1875 C 17.527344 6.96875 14.371094 7.585938 10.34375 5.289062 L 7.449219 3.636719 L 12.835938 -5.804688 L 14.34375 -4.945312 C 18.222656 -2.730469 19.429688 -1.007812 18.453125 2.316406 L 22.96875 -5.59375 C 20.585938 -3.035156 18.488281 -3.195312 14.609375 -5.410156 L 13.101562 -6.269531 L 18.492188 -15.710938 L 21.445312 -14.027344 C 25.472656 -11.726562 25.746094 -9.652344 26.074219 -4.777344 L 26.222656 -4.769531 L 28.167969 -10.800781 L 12.007812 -20.027344 L 11.921875 -19.882812 C 13.027344 -19.058594 13.859375 -18.164062 13.265625 -17.121094 L 3.910156 -0.726562 C 3.3125 0.316406 1.953125 0.347656 0.515625 0.101562 L 0.433594 0.246094 L 16.015625 9.140625 L 16.636719 10.339844 L 17.175781 9.804688 L 22.421875 4.3125 Z M 22.339844 4.1875 "/></g></g></g><g fill="#033d68" fill-opacity="1"><g transform="translate(251.763708, 105.499362)"><g><path d="M 29.34375 -4.515625 L 29.230469 -4.390625 C 30.113281 -3.335938 30.261719 -1.785156 27.160156 1.527344 L 20.484375 8.664062 L 21.386719 -10.359375 C 21.578125 -11.050781 21.46875 -11.472656 21.550781 -11.804688 L 16.195312 -16.816406 C 16.609375 -15.699219 16.691406 -14.570312 16.609375 -12.820312 L 6.035156 -1.523438 C 2.9375 1.789062 1.835938 1.261719 0.722656 0.449219 L 0.609375 0.570312 L 4.796875 4.488281 L 4.910156 4.367188 C 4.027344 3.3125 3.878906 1.757812 6.980469 -1.554688 L 16.550781 -11.78125 L 15.117188 15.425781 L 15.210938 15.421875 C 15.984375 14.5 17.09375 13.164062 19.464844 10.632812 L 28.054688 1.453125 C 31.15625 -1.859375 32.257812 -1.332031 33.371094 -0.519531 L 33.484375 -0.640625 Z M 29.34375 -4.515625 "/></g></g></g><g fill="#033d68" fill-opacity="1"><g transform="translate(270.990203, 124.685365)"><g><path d="M 23.148438 -11.609375 L 32.15625 -7.109375 L 32.789062 -9.636719 L 23.191406 -11.886719 Z M 0.292969 0.40625 L 6.359375 8.734375 L 6.492188 8.636719 C 5.824219 7.433594 5.433594 6.273438 6.402344 5.566406 L 22.203125 -5.933594 C 23.175781 -6.640625 24.160156 -5.910156 25.097656 -4.902344 L 25.234375 -5 L 19.167969 -13.332031 L 19.035156 -13.234375 C 19.703125 -12.03125 20.09375 -10.871094 19.125 -10.164062 L 3.324219 1.335938 C 2.351562 2.042969 1.367188 1.3125 0.429688 0.304688 Z M 0.292969 0.40625 "/></g></g></g><g fill="#033d68" fill-opacity="1"><g transform="translate(74.05522, 242.234447)"><g><path d="M 15.308594 13.742188 C 10.300781 14.855469 8.65625 13.691406 6.195312 9.515625 L 3.15625 4.355469 L 24.042969 4.847656 C 27.328125 4.929688 28.359375 5.058594 29.007812 5.78125 L 29.117188 5.71875 L 20.554688 -8.804688 L 14.679688 -6.480469 L 14.746094 -6.371094 C 19.792969 -7.546875 21.421875 -6.335938 23.738281 -2.40625 L 26.347656 2.015625 L 6.480469 1.511719 C 2.894531 1.417969 1.175781 1.183594 0.320312 0.546875 L 9.523438 16.160156 L 15.375 13.851562 Z M 15.308594 13.742188 "/></g></g></g><g fill="#033d68" fill-opacity="1"><g transform="translate(87.680862, 264.445563)"><g><path d="M 23.222656 -7.625 L 16.542969 -14.785156 L 16.425781 -14.675781 C 17.195312 -13.617188 17.699219 -12.570312 16.863281 -11.789062 L 3.75 0.445312 C 2.917969 1.222656 1.675781 0.863281 0.441406 0.238281 L 0.324219 0.347656 L 6.570312 7.042969 C 11.261719 12.070312 18.121094 13.339844 23.613281 8.21875 C 28.480469 3.679688 28.34375 -2.132812 23.222656 -7.625 Z M 7.308594 7.089844 C 6.035156 5.722656 5.40625 4.445312 5.066406 3.203125 L 19.804688 -10.546875 L 21.984375 -8.203125 C 26.847656 -2.992188 25.136719 2.464844 20.246094 7.023438 C 14.871094 12.039062 10.941406 10.984375 7.308594 7.089844 Z M 7.308594 7.089844 "/></g></g></g><g fill="#033d68" fill-opacity="1"><g transform="translate(108.105044, 285.245862)"><g><path d="M 16.613281 6.21875 L 16.339844 -0.4375 C 20.109375 1.007812 23.550781 0.167969 25.417969 -2.585938 C 27.574219 -5.757812 25.957031 -9.191406 21.867188 -11.964844 L 12.847656 -18.085938 L 12.757812 -17.957031 C 13.746094 -17.09375 14.464844 -16.183594 13.824219 -15.238281 L 3.398438 0.125 C 2.757812 1.070312 1.644531 0.734375 0.480469 0.136719 L 0.394531 0.265625 L 6.789062 4.609375 L 6.878906 4.476562 C 5.894531 3.617188 5.171875 2.707031 5.8125 1.761719 L 9.941406 -4.320312 L 13.347656 -2.007812 L 13.664062 -1.796875 L 13.988281 8.839844 L 13.6875 9.289062 L 18.171875 12.328125 L 18.222656 12.25 C 17.324219 10.644531 16.71875 9.390625 16.613281 6.21875 Z M 10.652344 -5.371094 L 16.933594 -14.625 L 20.132812 -12.457031 C 25.191406 -9.019531 24.164062 -5.8125 22.417969 -3.242188 C 19.945312 0.402344 17.785156 0.3125 14.375 -2 C 12.933594 -2.980469 11.773438 -4.035156 10.652344 -5.371094 Z M 10.652344 -5.371094 "/></g></g></g><g fill="#033d68" fill-opacity="1"><g transform="translate(131.161942, 300.320005)"><g><path d="M 21.496094 3.921875 L 21.261719 -14.242188 C 21.230469 -16.019531 21.277344 -16.238281 21.378906 -16.503906 L 18.144531 -15.667969 L 17.578125 -15.511719 L 17.421875 -14.925781 L 5.007812 -2.195312 C 2.941406 -0.0664062 2.015625 0.226562 0.636719 0.105469 L 0.59375 0.226562 L 6.039062 2.300781 L 6.085938 2.183594 C 4.5625 1.195312 3.582031 0.210938 5.648438 -1.917969 L 6.863281 -3.148438 L 18.527344 1.296875 L 18.558594 3.003906 C 18.601562 6.003906 17.167969 6.203125 15.027344 5.589844 L 14.980469 5.710938 L 23.007812 8.769531 L 23.050781 8.648438 C 21.785156 7.964844 21.523438 7.050781 21.496094 3.921875 Z M 7.273438 -3.601562 L 18.25 -14.882812 L 18.523438 0.683594 Z M 7.273438 -3.601562 "/></g></g></g><g fill="#033d68" fill-opacity="1"><g transform="translate(160.674229, 310.717877)"><g><path d="M 20.429688 -19.875 L 20.414062 -19.75 C 22.132812 -19.160156 23.320312 -18.441406 21.832031 -15.878906 L 12.691406 -0.160156 L 8.085938 -17.535156 C 7.316406 -20.4375 8.691406 -20.972656 10.914062 -20.898438 L 10.929688 -21.023438 L 3.285156 -21.945312 C 3.707031 -21.480469 4.222656 -20.460938 4.535156 -19.335938 L 10.128906 1.476562 L 9.957031 2.125 L 13.058594 0.492188 L 22.519531 -15.761719 C 24.011719 -18.328125 24.835938 -18.832031 26.203125 -19.050781 L 26.21875 -19.175781 Z M 20.429688 -19.875 "/></g></g></g><g fill="#033d68" fill-opacity="1"><g transform="translate(191.02274, 313.74437)"><g><path d="M 10.269531 -24.15625 C 3.765625 -23.308594 -0.941406 -18.25 -0.0195312 -11.179688 C 0.902344 -4.113281 6.75 -0.433594 13.253906 -1.28125 C 19.695312 -2.121094 24.402344 -7.175781 23.480469 -14.246094 C 22.558594 -21.316406 16.710938 -24.996094 10.269531 -24.15625 Z M 14.40625 -2.007812 C 8.625 -1.253906 3.648438 -7.058594 2.820312 -13.40625 C 2.125 -18.746094 4.5625 -22.835938 9.054688 -23.421875 C 14.835938 -24.175781 19.839844 -18.40625 20.667969 -12.058594 C 21.367188 -6.683594 18.898438 -2.59375 14.40625 -2.007812 Z M 14.40625 -2.007812 "/></g></g></g><g fill="#033d68" fill-opacity="1"><g transform="translate(223.094423, 308.557006)"><g><path d="M 11.984375 -28.386719 L -6.703125 -21.1875 L -5.332031 -14.71875 L -5.214844 -14.765625 C -5.046875 -19.449219 -4.578125 -21.496094 -0.0859375 -23.226562 L 0.832031 -23.582031 L 7.871094 -5.308594 C 8.394531 -3.945312 7.484375 -3.222656 5.738281 -2.378906 L 5.796875 -2.234375 L 14.191406 -5.46875 L 14.136719 -5.617188 C 12.273438 -5.070312 11.113281 -4.996094 10.589844 -6.355469 L 3.550781 -24.628906 L 6.003906 -25.574219 C 8.960938 -26.710938 11.15625 -25.691406 12.320312 -21.519531 L 12.4375 -21.566406 Z M 11.984375 -28.386719 "/></g></g></g><g fill="#033d68" fill-opacity="1"><g transform="translate(248.538056, 298.155579)"><g><path d="M 2.019531 -28.078125 L 2.109375 -27.945312 C 3.277344 -28.539062 4.746094 -28.339844 7.148438 -24.761719 L 13.773438 -14.898438 L -5.890625 -20.589844 C -6.9375 -20.839844 -7.527344 -21.207031 -7.921875 -21.398438 L -12.105469 -18.589844 C -10.980469 -18.734375 -9.914062 -18.570312 -8.316406 -18.117188 L -0.117188 -5.914062 C 2.285156 -2.335938 1.558594 -1.429688 0.570312 -0.574219 L 0.65625 -0.441406 L 5.183594 -3.480469 L 5.09375 -3.613281 C 3.925781 -3.019531 2.457031 -3.214844 0.0546875 -6.792969 L -7.363281 -17.839844 L 17.511719 -10.695312 L 17.53125 -10.78125 C 16.839844 -11.695312 15.84375 -13.007812 14.007812 -15.746094 L 7.347656 -25.660156 C 4.941406 -29.238281 5.667969 -30.144531 6.660156 -31 L 6.570312 -31.132812 Z M 2.019531 -28.078125 "/></g></g></g><g fill="#033d68" fill-opacity="1"><g transform="translate(271.437104, 281.542888)"><g><path d="M -14.679688 -19.699219 L -11.84375 -28.273438 L -13.808594 -28.640625 L -14.792969 -19.679688 Z M 0.34375 -0.328125 L 5.960938 -5.640625 L 5.851562 -5.757812 C 4.796875 -4.980469 3.753906 -4.46875 2.96875 -5.296875 L -9.796875 -18.78125 C -10.578125 -19.609375 -10.015625 -20.625 -9.179688 -21.632812 L -9.289062 -21.75 L -14.902344 -16.433594 L -14.792969 -16.320312 C -13.742188 -17.097656 -12.695312 -17.605469 -11.914062 -16.777344 L 0.851562 -3.292969 C 1.636719 -2.464844 1.070312 -1.449219 0.234375 -0.441406 Z M 0.34375 -0.328125 "/></g></g></g><g fill="#033d68" fill-opacity="1"><g transform="translate(281.547091, 272.211662)"><g><path d="M 10.257812 -19.414062 L 10 -19.332031 C 10.519531 -17.230469 9.628906 -14.371094 8.175781 -12.449219 C 4.851562 -8.050781 -2.171875 -7.480469 -7.457031 -11.472656 C -12.183594 -15.042969 -12.535156 -19.835938 -9.898438 -23.324219 C -6.976562 -27.191406 -2.394531 -26.789062 -0.160156 -22.917969 L -0.078125 -22.972656 L -2.042969 -29.304688 C -4.339844 -29.210938 -7.125 -28.097656 -9.53125 -24.914062 C -13.464844 -19.707031 -13.777344 -12.199219 -8.015625 -7.84375 C -2.527344 -3.699219 4.539062 -5.269531 8.492188 -10.503906 C 10.917969 -13.710938 11.15625 -17.027344 10.257812 -19.414062 Z M 10.257812 -19.414062 "/></g></g></g><g fill="#033d68" fill-opacity="1"><g transform="translate(297.667073, 249.208883)"><g><path d="M 0.21875 -0.421875 L 3.800781 -7.273438 L 3.660156 -7.347656 C 2.917969 -6.269531 2.09375 -5.449219 1.082031 -5.976562 L -15.375 -14.574219 C -16.386719 -15.101562 -16.179688 -16.246094 -15.71875 -17.46875 L -15.859375 -17.542969 L -19.441406 -10.691406 L -19.300781 -10.617188 C -18.558594 -11.695312 -17.734375 -12.515625 -16.722656 -11.988281 L -0.265625 -3.390625 C 0.746094 -2.863281 0.539062 -1.71875 0.078125 -0.496094 Z M 0.21875 -0.421875 "/></g></g></g><g clip-path="url(#id2)"><path fill="#033d68" d="M 181.664062 261.527344 L 181.621094 261.523438 C 180.074219 261.503906 178.804688 260.304688 178.699219 258.769531 L 173.136719 178.097656 L 171.539062 221.328125 C 171.488281 222.761719 170.410156 223.953125 168.980469 224.152344 C 167.554688 224.351562 166.191406 223.503906 165.746094 222.136719 L 163.269531 214.574219 L 161.238281 214.574219 C 159.980469 214.574219 158.859375 213.785156 158.4375 212.609375 L 155.75 205.105469 L 152.445312 212.777344 C 151.976562 213.867188 150.902344 214.574219 149.714844 214.574219 L 115.671875 214.574219 C 114.03125 214.574219 112.699219 213.246094 112.699219 211.613281 C 112.699219 209.976562 114.03125 208.652344 115.671875 208.652344 L 147.753906 208.652344 L 153.269531 195.839844 C 153.75 194.71875 154.863281 194.003906 156.089844 194.046875 C 157.3125 194.085938 158.386719 194.863281 158.796875 196.007812 L 163.332031 208.652344 L 165.425781 208.652344 C 165.640625 208.652344 165.855469 208.675781 166.058594 208.71875 L 169.265625 121.773438 C 169.324219 120.199219 170.609375 118.945312 172.1875 118.921875 C 172.203125 118.921875 172.222656 118.921875 172.238281 118.921875 C 173.796875 118.921875 175.09375 120.121094 175.199219 121.675781 L 182.195312 223.117188 L 183.421875 210.800781 C 183.574219 209.242188 184.914062 208.082031 186.488281 208.132812 L 199.125 208.601562 C 200.707031 206.804688 203.957031 203.867188 208.597656 203.386719 C 212.960938 202.933594 217.335938 204.707031 221.617188 208.652344 L 233.515625 208.652344 C 235.15625 208.652344 236.488281 209.976562 236.488281 211.613281 C 236.488281 213.246094 235.15625 214.574219 233.515625 214.574219 L 220.421875 214.574219 C 219.632812 214.574219 218.878906 214.261719 218.320312 213.707031 C 215.09375 210.492188 212.046875 209 209.257812 209.269531 C 205.464844 209.640625 203.023438 213.210938 202.996094 213.246094 C 202.425781 214.097656 201.4375 214.609375 200.410156 214.570312 L 189.058594 214.152344 L 184.621094 258.855469 C 184.46875 260.375 183.1875 261.527344 181.664062 261.527344 " fill-opacity="1" fill-rule="nonzero"/></g><g clip-path="url(#id3)"><path fill="#bf1b2c" d="M 256.5625 196.210938 L 255.886719 195.746094 C 255.808594 195.691406 248.039062 190.289062 240.382812 182.820312 C 235.867188 178.40625 232.253906 174.144531 229.652344 170.144531 C 226.347656 165.027344 224.664062 160.289062 224.664062 156.082031 C 224.664062 146.496094 232.332031 138.691406 241.75 138.691406 C 245.246094 138.691406 248.625 139.78125 251.507812 141.859375 C 253.601562 143.367188 255.3125 145.289062 256.5625 147.496094 C 257.8125 145.273438 259.523438 143.351562 261.613281 141.859375 C 264.5 139.78125 267.878906 138.691406 271.375 138.691406 C 280.792969 138.691406 288.460938 146.496094 288.460938 156.082031 L 288.460938 156.09375 C 288.421875 160.277344 286.726562 164.976562 283.410156 170.082031 C 280.804688 174.082031 277.207031 178.339844 272.691406 182.769531 C 265.046875 190.265625 257.316406 195.691406 257.238281 195.746094 Z M 241.75 141.117188 C 233.644531 141.117188 227.050781 147.832031 227.050781 156.082031 C 227.050781 159.808594 228.59375 164.082031 231.644531 168.78125 C 234.132812 172.625 237.628906 176.757812 242.015625 181.042969 C 248.230469 187.109375 254.535156 191.796875 256.5625 193.25 C 258.589844 191.785156 264.855469 187.070312 271.058594 180.992188 C 275.433594 176.691406 278.917969 172.574219 281.417969 168.730469 C 284.46875 164.027344 286.035156 159.78125 286.0625 156.082031 C 286.0625 147.832031 279.464844 141.132812 271.363281 141.132812 C 265.355469 141.132812 259.855469 145.003906 257.660156 150.769531 L 256.550781 153.703125 L 255.453125 150.769531 C 253.257812 145.003906 247.757812 141.117188 241.75 141.117188 Z M 241.75 141.117188 " fill-opacity="1" fill-rule="nonzero"/></g><path stroke-linecap="round" transform="matrix(3.535207, -5.214366, 5.177024, 3.509889, 232.303583, 212.171734)" fill="none" stroke-linejoin="miter" d="M 0.499678 0.0000508391 L 6.53391 0.00000765582 " stroke="#033d68" stroke-width="1" stroke-opacity="1" stroke-miterlimit="4"/><path stroke-linecap="round" transform="matrix(3.535207, -5.214366, 5.177024, 3.509889, 266.007145, 162.45957)" fill-opacity="1" fill="#033d68" fill-rule="nonzero" stroke-linejoin="round" d="M -2.500087 -1.500182 L -0.500067 -0.000197986 L -2.500279 1.499984 Z M -2.500087 -1.500182 " stroke="#033d68" stroke-width="1" stroke-opacity="1" stroke-miterlimit="4"/></svg>