<svg xmlns="http://www.w3.org/2000/svg" xmlns:xlink="http://www.w3.org/1999/xlink" width="500" zoomAndPan="magnify" viewBox="0 0 375 374.999991" height="500" preserveAspectRatio="xMidYMid meet" version="1.0"><defs><g/><clipPath id="id1"><path d="M 114.261719 114.261719 L 260.878906 114.261719 L 260.878906 260.878906 L 114.261719 260.878906 Z M 114.261719 114.261719 " clip-rule="nonzero"/></clipPath><clipPath id="id2"><path d="M 147.578125 151.652344 L 211.136719 151.652344 L 211.136719 224.960938 L 147.578125 224.960938 Z M 147.578125 151.652344 " clip-rule="nonzero"/></clipPath><clipPath id="id3"><path d="M 205.171875 161.816406 L 238.398438 161.816406 L 238.398438 191.066406 L 205.171875 191.066406 Z M 205.171875 161.816406 " clip-rule="nonzero"/></clipPath></defs><g clip-path="url(#id1)"><path fill="rgb(1.179504%, 23.919678%, 40.779114%)" d="M 187.546875 260.878906 C 147.15625 260.878906 114.261719 227.984375 114.261719 187.546875 C 114.261719 147.109375 147.15625 114.261719 187.546875 114.261719 C 227.933594 114.261719 260.828125 147.15625 260.828125 187.546875 C 260.878906 227.984375 227.984375 260.878906 187.546875 260.878906 Z M 187.546875 115.503906 C 147.804688 115.503906 115.503906 147.804688 115.503906 187.546875 C 115.503906 227.289062 147.851562 259.636719 187.546875 259.636719 C 227.238281 259.636719 259.636719 227.289062 259.636719 187.546875 C 259.636719 147.804688 227.289062 115.503906 187.546875 115.503906 Z M 187.546875 115.503906 " fill-opacity="1" fill-rule="nonzero"/></g><g fill="rgb(1.179504%, 23.919678%, 40.779114%)" fill-opacity="1"><g transform="translate(140.584783, 159.449812)"><g><path d="M -1.964844 -9.371094 C -3.40625 -8.214844 -4.710938 -7.367188 -6.058594 -8.429688 C -6.714844 -8.953125 -7.429688 -9.957031 -6.417969 -11.234375 C -5.257812 -12.699219 -2.828125 -13.335938 -1.175781 -11.609375 L -2.136719 -14.515625 C -3.386719 -14.34375 -4.851562 -13.601562 -6.097656 -12.027344 C -7.832031 -9.835938 -7.972656 -7.5625 -6.261719 -6.207031 C -5.066406 -5.261719 -3.058594 -4.894531 -0.355469 -7.066406 C 1.289062 -8.367188 2.269531 -8.945312 3.375 -8.070312 C 3.992188 -7.582031 5.003906 -6.34375 3.746094 -4.757812 C 2.574219 -3.277344 0.101562 -2.613281 -1.65625 -4.265625 L -0.648438 -1.390625 C 0.625 -1.5625 2.234375 -2.433594 3.542969 -4.085938 C 5.417969 -6.453125 5.308594 -8.882812 3.597656 -10.234375 C 2.578125 -11.042969 0.78125 -11.570312 -1.964844 -9.371094 Z M -1.964844 -9.371094 "/></g></g></g><g fill="rgb(1.179504%, 23.919678%, 40.779114%)" fill-opacity="1"><g transform="translate(148.129129, 150.006586)"><g><path d="M -2.128906 -13.65625 L -7.28125 -9.550781 L -7.226562 -9.484375 C -6.625 -9.855469 -6.035156 -10.082031 -5.652344 -9.597656 L 0.613281 -1.738281 C 0.996094 -1.253906 0.644531 -0.734375 0.148438 -0.226562 L 0.203125 -0.160156 L 4.347656 -3.464844 L 4.292969 -3.53125 C 3.691406 -3.160156 3.101562 -2.933594 2.71875 -3.414062 L 0.699219 -5.949219 L 2.105469 -7.074219 C 4.84375 -9.253906 5.675781 -11.871094 4.007812 -13.960938 C 2.46875 -15.894531 0.394531 -15.664062 -2.128906 -13.65625 Z M 2.5625 -7.765625 C 1.878906 -7.222656 1.097656 -6.796875 0.28125 -6.472656 L -3.984375 -11.828125 L -2.710938 -12.84375 C -0.5625 -14.550781 1.210938 -13.203125 2.484375 -11.609375 C 4.109375 -9.570312 3.742188 -8.707031 2.5625 -7.765625 Z M 2.5625 -7.765625 "/></g></g></g><g fill="rgb(1.179504%, 23.919678%, 40.779114%)" fill-opacity="1"><g transform="translate(158.50813, 141.678256)"><g><path d="M 1.9375 -14.21875 C -1.566406 -12.683594 -3.25 -9.34375 -1.703125 -5.808594 C -0.152344 -2.273438 3.441406 -1.246094 6.945312 -2.78125 C 10.433594 -4.308594 12.117188 -7.648438 10.570312 -11.183594 C 9.019531 -14.71875 5.421875 -15.746094 1.9375 -14.21875 Z M 7.5 -3.359375 C 5.015625 -2.273438 1.785156 -4.941406 0.417969 -8.066406 C -0.710938 -10.644531 -0.359375 -12.875 1.367188 -13.632812 C 3.851562 -14.71875 7.078125 -12.050781 8.441406 -8.941406 C 9.570312 -6.363281 9.226562 -4.117188 7.5 -3.359375 Z M 7.5 -3.359375 "/></g></g></g><g fill="rgb(1.179504%, 23.919678%, 40.779114%)" fill-opacity="1"><g transform="translate(173.07621, 135.535835)"><g><path d="M 4.070312 -1.578125 L 2.621094 -11.527344 C 2.53125 -12.136719 3.101562 -12.410156 3.785156 -12.597656 L 3.769531 -12.683594 L -1.472656 -11.917969 L -1.460938 -11.835938 C -0.753906 -11.851562 -0.132812 -11.75 -0.0429688 -11.140625 L 1.402344 -1.191406 C 1.492188 -0.582031 0.925781 -0.308594 0.242188 -0.121094 L 0.253906 -0.0351562 L 5.5 -0.800781 L 5.488281 -0.886719 C 4.777344 -0.867188 4.15625 -0.96875 4.070312 -1.578125 Z M 13.207031 -1.921875 C 12.257812 -2.234375 11.726562 -2.554688 10.351562 -3.792969 L 5.574219 -8.28125 L 7.839844 -11.175781 C 9.128906 -12.800781 9.875 -13.378906 10.847656 -13.605469 L 10.867188 -13.714844 L 7.300781 -13.195312 L 7.28125 -13.089844 C 8.796875 -13.171875 8.679688 -12.773438 8.402344 -12.417969 L 3.527344 -6.144531 L 4.289062 -6.257812 L 9.175781 -1.628906 L 9.21875 -1.339844 Z M 13.207031 -1.921875 "/></g></g></g><g fill="rgb(1.179504%, 23.919678%, 40.779114%)" fill-opacity="1"><g transform="translate(187.256115, 133.49248)"><g><path d="M 8.9375 -11.226562 C 5.140625 -11.703125 1.984375 -9.691406 1.507812 -5.863281 C 1.03125 -2.03125 3.597656 0.691406 7.390625 1.164062 C 11.171875 1.632812 14.324219 -0.375 14.800781 -4.207031 C 15.28125 -8.035156 12.714844 -10.757812 8.9375 -11.226562 Z M 8.160156 0.949219 C 5.472656 0.613281 4.0625 -3.332031 4.484375 -6.71875 C 4.832031 -9.507812 6.277344 -11.25 8.148438 -11.015625 C 10.839844 -10.679688 12.246094 -6.734375 11.828125 -3.367188 C 11.480469 -0.574219 10.035156 1.179688 8.160156 0.949219 Z M 8.160156 0.949219 "/></g></g></g><g fill="rgb(1.179504%, 23.919678%, 40.779114%)" fill-opacity="1"><g transform="translate(203.192454, 136.070149)"><g><path d="M 4.570312 -11.121094 L 4.539062 -11.042969 C 5.226562 -10.710938 5.730469 -10.335938 5.527344 -9.753906 L 2.09375 0.09375 C 1.324219 2.296875 0.558594 3.191406 -1.277344 3.40625 L -1.257812 3.449219 C 0.878906 3.574219 3.019531 2.851562 4.410156 1.9375 C 4.511719 1.390625 4.75 0.65625 5.117188 -0.394531 L 8.070312 -8.867188 C 8.273438 -9.449219 8.902344 -9.429688 9.59375 -9.28125 L 9.621094 -9.359375 Z M 4.570312 -11.121094 "/></g></g></g><g fill="rgb(1.179504%, 23.919678%, 40.779114%)" fill-opacity="1"><g transform="translate(210.507946, 138.511496)"><g><path d="M 11.488281 2.152344 C 9.015625 3.585938 7.390625 3.902344 5.320312 2.71875 L 3.832031 1.871094 L 6.601562 -2.984375 L 7.378906 -2.542969 C 9.375 -1.40625 9.992188 -0.519531 9.492188 1.191406 L 11.8125 -2.875 C 10.589844 -1.5625 9.507812 -1.644531 7.511719 -2.78125 L 6.738281 -3.222656 L 9.511719 -8.082031 L 11.03125 -7.214844 C 13.101562 -6.03125 13.242188 -4.964844 13.410156 -2.457031 L 13.488281 -2.453125 L 14.488281 -5.554688 L 6.175781 -10.300781 L 6.132812 -10.226562 C 6.699219 -9.804688 7.128906 -9.339844 6.824219 -8.804688 L 2.011719 -0.375 C 1.703125 0.164062 1.003906 0.179688 0.265625 0.0546875 L 0.222656 0.128906 L 8.238281 4.703125 L 8.558594 5.320312 L 8.835938 5.042969 L 11.53125 2.21875 Z M 11.488281 2.152344 "/></g></g></g><g fill="rgb(1.179504%, 23.919678%, 40.779114%)" fill-opacity="1"><g transform="translate(221.317796, 144.749947)"><g><path d="M 15.09375 -2.320312 L 15.035156 -2.257812 C 15.488281 -1.714844 15.5625 -0.917969 13.96875 0.785156 L 10.535156 4.457031 L 11 -5.328125 C 11.097656 -5.683594 11.042969 -5.902344 11.085938 -6.070312 L 8.328125 -8.648438 C 8.542969 -8.074219 8.585938 -7.492188 8.542969 -6.59375 L 3.105469 -0.78125 C 1.511719 0.921875 0.945312 0.648438 0.371094 0.230469 L 0.3125 0.292969 L 2.46875 2.308594 L 2.527344 2.246094 C 2.070312 1.703125 1.996094 0.90625 3.589844 -0.796875 L 8.511719 -6.058594 L 7.777344 7.933594 L 7.824219 7.933594 C 8.222656 7.457031 8.792969 6.769531 10.011719 5.46875 L 14.429688 0.746094 C 16.023438 -0.957031 16.589844 -0.683594 17.164062 -0.265625 L 17.222656 -0.328125 Z M 15.09375 -2.320312 "/></g></g></g><g fill="rgb(1.179504%, 23.919678%, 40.779114%)" fill-opacity="1"><g transform="translate(231.206584, 154.617884)"><g><path d="M 11.90625 -5.972656 L 16.539062 -3.65625 L 16.867188 -4.957031 L 11.925781 -6.113281 Z M 0.152344 0.207031 L 3.269531 4.492188 L 3.339844 4.441406 C 2.996094 3.824219 2.792969 3.226562 3.292969 2.863281 L 11.421875 -3.050781 C 11.917969 -3.414062 12.425781 -3.039062 12.910156 -2.523438 L 12.976562 -2.574219 L 9.859375 -6.859375 L 9.789062 -6.808594 C 10.132812 -6.1875 10.335938 -5.59375 9.835938 -5.230469 L 1.710938 0.6875 C 1.210938 1.050781 0.703125 0.675781 0.222656 0.15625 Z M 0.152344 0.207031 "/></g></g></g><g fill="rgb(1.179504%, 23.919678%, 40.779114%)" fill-opacity="1"><g transform="translate(129.151945, 214.64852)"><g><path d="M 7.875 7.070312 C 5.296875 7.640625 4.453125 7.042969 3.1875 4.894531 L 1.625 2.242188 L 12.363281 2.492188 C 14.054688 2.535156 14.585938 2.601562 14.917969 2.972656 L 14.976562 2.941406 L 10.574219 -4.527344 L 7.550781 -3.332031 L 7.582031 -3.277344 C 10.179688 -3.878906 11.019531 -3.257812 12.210938 -1.238281 L 13.550781 1.039062 L 3.332031 0.777344 C 1.488281 0.730469 0.605469 0.609375 0.164062 0.28125 L 4.898438 8.3125 L 7.90625 7.125 Z M 7.875 7.070312 "/></g></g></g><g fill="rgb(1.179504%, 23.919678%, 40.779114%)" fill-opacity="1"><g transform="translate(136.160018, 226.072384)"><g><path d="M 11.945312 -3.921875 L 8.507812 -7.601562 L 8.449219 -7.546875 C 8.84375 -7.003906 9.101562 -6.464844 8.675781 -6.0625 L 1.929688 0.226562 C 1.5 0.628906 0.859375 0.445312 0.226562 0.125 L 0.167969 0.179688 L 3.378906 3.621094 C 5.792969 6.207031 9.320312 6.859375 12.144531 4.226562 C 14.648438 1.890625 14.578125 -1.097656 11.945312 -3.921875 Z M 3.757812 3.648438 C 3.101562 2.945312 2.78125 2.289062 2.605469 1.648438 L 10.183594 -5.421875 L 11.308594 -4.21875 C 13.808594 -1.539062 12.929688 1.265625 10.414062 3.613281 C 7.648438 6.191406 5.628906 5.648438 3.757812 3.648438 Z M 3.757812 3.648438 "/></g></g></g><g fill="rgb(1.179504%, 23.919678%, 40.779114%)" fill-opacity="1"><g transform="translate(146.664787, 236.770579)"><g><path d="M 8.542969 3.199219 L 8.40625 -0.226562 C 10.34375 0.519531 12.113281 0.0859375 13.074219 -1.332031 C 14.179688 -2.960938 13.351562 -4.726562 11.246094 -6.15625 L 6.609375 -9.300781 L 6.5625 -9.234375 C 7.070312 -8.792969 7.441406 -8.324219 7.109375 -7.839844 L 1.75 0.0625 C 1.417969 0.550781 0.847656 0.378906 0.246094 0.0703125 L 0.203125 0.136719 L 3.492188 2.371094 L 3.539062 2.300781 C 3.03125 1.859375 2.660156 1.390625 2.988281 0.90625 L 5.113281 -2.222656 L 6.867188 -1.03125 L 7.027344 -0.921875 L 7.195312 4.546875 L 7.039062 4.777344 L 9.34375 6.339844 L 9.371094 6.300781 C 8.910156 5.472656 8.597656 4.832031 8.542969 3.199219 Z M 5.476562 -2.761719 L 8.707031 -7.523438 L 10.355469 -6.40625 C 12.957031 -4.640625 12.429688 -2.988281 11.53125 -1.667969 C 10.257812 0.207031 9.148438 0.160156 7.394531 -1.027344 C 6.652344 -1.53125 6.054688 -2.074219 5.476562 -2.761719 Z M 5.476562 -2.761719 "/></g></g></g><g fill="rgb(1.179504%, 23.919678%, 40.779114%)" fill-opacity="1"><g transform="translate(158.523638, 244.523688)"><g><path d="M 11.054688 2.015625 L 10.9375 -7.324219 C 10.917969 -8.238281 10.945312 -8.351562 10.996094 -8.488281 L 9.332031 -8.058594 L 9.039062 -7.976562 L 8.960938 -7.675781 L 2.574219 -1.128906 C 1.511719 -0.0351562 1.035156 0.117188 0.328125 0.0546875 L 0.304688 0.117188 L 3.105469 1.183594 L 3.128906 1.125 C 2.347656 0.617188 1.84375 0.109375 2.90625 -0.984375 L 3.53125 -1.621094 L 9.53125 0.667969 L 9.542969 1.542969 C 9.566406 3.085938 8.828125 3.191406 7.730469 2.875 L 7.707031 2.9375 L 11.832031 4.507812 L 11.855469 4.449219 C 11.207031 4.097656 11.070312 3.625 11.054688 2.015625 Z M 3.742188 -1.851562 L 9.386719 -7.652344 L 9.527344 0.351562 Z M 3.742188 -1.851562 "/></g></g></g><g fill="rgb(1.179504%, 23.919678%, 40.779114%)" fill-opacity="1"><g transform="translate(173.702689, 249.871605)"><g><path d="M 10.507812 -10.222656 L 10.5 -10.15625 C 11.382812 -9.855469 11.996094 -9.484375 11.226562 -8.167969 L 6.527344 -0.0820312 L 4.15625 -9.019531 C 3.761719 -10.511719 4.46875 -10.789062 5.613281 -10.746094 L 5.621094 -10.8125 L 1.691406 -11.285156 C 1.90625 -11.046875 2.171875 -10.523438 2.332031 -9.945312 L 5.210938 0.761719 L 5.121094 1.09375 L 6.714844 0.253906 L 11.582031 -8.105469 C 12.347656 -9.425781 12.773438 -9.6875 13.476562 -9.800781 L 13.484375 -9.863281 Z M 10.507812 -10.222656 "/></g></g></g><g fill="rgb(1.179504%, 23.919678%, 40.779114%)" fill-opacity="1"><g transform="translate(189.311852, 251.428231)"><g><path d="M 5.28125 -12.421875 C 1.9375 -11.988281 -0.484375 -9.386719 -0.0117188 -5.75 C 0.464844 -2.113281 3.472656 -0.222656 6.816406 -0.660156 C 10.128906 -1.089844 12.550781 -3.691406 12.078125 -7.328125 C 11.601562 -10.964844 8.59375 -12.855469 5.28125 -12.421875 Z M 7.410156 -1.03125 C 4.4375 -0.644531 1.875 -3.628906 1.449219 -6.894531 C 1.09375 -9.640625 2.347656 -11.746094 4.65625 -12.046875 C 7.632812 -12.433594 10.203125 -9.464844 10.628906 -6.203125 C 10.992188 -3.4375 9.71875 -1.332031 7.410156 -1.03125 Z M 7.410156 -1.03125 "/></g></g></g><g fill="rgb(1.179504%, 23.919678%, 40.779114%)" fill-opacity="1"><g transform="translate(205.807286, 248.760203)"><g><path d="M 6.164062 -14.601562 L -3.445312 -10.898438 L -2.742188 -7.570312 L -2.679688 -7.59375 C -2.597656 -10.003906 -2.355469 -11.054688 -0.0429688 -11.945312 L 0.425781 -12.128906 L 4.046875 -2.730469 C 4.316406 -2.03125 3.851562 -1.65625 2.953125 -1.222656 L 2.980469 -1.148438 L 7.300781 -2.8125 L 7.269531 -2.886719 C 6.3125 -2.605469 5.714844 -2.570312 5.445312 -3.269531 L 1.828125 -12.667969 L 3.089844 -13.152344 C 4.609375 -13.738281 5.738281 -13.214844 6.335938 -11.070312 L 6.398438 -11.09375 Z M 6.164062 -14.601562 "/></g></g></g><g fill="rgb(1.179504%, 23.919678%, 40.779114%)" fill-opacity="1"><g transform="translate(218.893699, 243.410443)"><g><path d="M 1.039062 -14.441406 L 1.085938 -14.371094 C 1.683594 -14.679688 2.441406 -14.578125 3.675781 -12.738281 L 7.082031 -7.664062 L -3.027344 -10.589844 C -3.566406 -10.71875 -3.871094 -10.90625 -4.074219 -11.003906 L -6.226562 -9.5625 C -5.648438 -9.636719 -5.101562 -9.550781 -4.277344 -9.320312 L -0.0585938 -3.042969 C 1.175781 -1.203125 0.800781 -0.734375 0.292969 -0.292969 L 0.339844 -0.226562 L 2.664062 -1.789062 L 2.621094 -1.859375 C 2.019531 -1.554688 1.265625 -1.652344 0.0273438 -3.492188 L -3.789062 -9.175781 L 9.007812 -5.5 L 9.015625 -5.546875 C 8.664062 -6.015625 8.148438 -6.691406 7.203125 -8.097656 L 3.777344 -13.199219 C 2.542969 -15.039062 2.917969 -15.503906 3.425781 -15.945312 L 3.378906 -16.011719 Z M 1.039062 -14.441406 "/></g></g></g><g fill="rgb(1.179504%, 23.919678%, 40.779114%)" fill-opacity="1"><g transform="translate(230.671364, 234.866031)"><g><path d="M -7.550781 -10.132812 L -6.09375 -14.542969 L -7.101562 -14.730469 L -7.609375 -10.121094 Z M 0.175781 -0.167969 L 3.066406 -2.902344 L 3.007812 -2.960938 C 2.46875 -2.5625 1.929688 -2.300781 1.527344 -2.726562 L -5.039062 -9.660156 C -5.441406 -10.085938 -5.152344 -10.609375 -4.722656 -11.128906 L -4.777344 -11.1875 L -7.664062 -8.453125 L -7.609375 -8.394531 C -7.066406 -8.792969 -6.53125 -9.054688 -6.128906 -8.628906 L 0.4375 -1.695312 C 0.839844 -1.269531 0.550781 -0.746094 0.121094 -0.226562 Z M 0.175781 -0.167969 "/></g></g></g><g fill="rgb(1.179504%, 23.919678%, 40.779114%)" fill-opacity="1"><g transform="translate(235.871227, 230.066709)"><g><path d="M 5.277344 -9.984375 L 5.144531 -9.941406 C 5.410156 -8.863281 4.953125 -7.390625 4.203125 -6.402344 C 2.496094 -4.140625 -1.117188 -3.847656 -3.835938 -5.898438 C -6.265625 -7.738281 -6.445312 -10.203125 -5.089844 -11.996094 C -3.585938 -13.984375 -1.230469 -13.777344 -0.0820312 -11.785156 L -0.0390625 -11.816406 L -1.050781 -15.070312 C -2.230469 -15.023438 -3.664062 -14.453125 -4.902344 -12.8125 C -6.925781 -10.136719 -7.085938 -6.273438 -4.121094 -4.035156 C -1.300781 -1.902344 2.332031 -2.710938 4.367188 -5.402344 C 5.613281 -7.054688 5.738281 -8.757812 5.277344 -9.984375 Z M 5.277344 -9.984375 "/></g></g></g><g fill="rgb(1.179504%, 23.919678%, 40.779114%)" fill-opacity="1"><g transform="translate(244.162224, 218.235682)"><g><path d="M 0.113281 -0.214844 L 1.953125 -3.742188 L 1.882812 -3.777344 C 1.5 -3.222656 1.078125 -2.800781 0.558594 -3.074219 L -7.90625 -7.496094 C -8.425781 -7.765625 -8.324219 -8.355469 -8.085938 -8.984375 L -8.15625 -9.023438 L -10 -5.5 L -9.925781 -5.460938 C -9.542969 -6.015625 -9.121094 -6.4375 -8.601562 -6.167969 L -0.136719 -1.746094 C 0.382812 -1.472656 0.277344 -0.882812 0.0390625 -0.253906 Z M 0.113281 -0.214844 "/></g></g></g><g clip-path="url(#id2)"><path fill="rgb(1.179504%, 23.919678%, 40.779114%)" d="M 182.980469 224.960938 L 182.957031 224.960938 C 182.164062 224.949219 181.511719 224.332031 181.457031 223.542969 L 178.601562 182.074219 L 177.785156 204.296875 C 177.757812 205.035156 177.203125 205.644531 176.472656 205.746094 C 175.738281 205.847656 175.039062 205.414062 174.808594 204.710938 L 173.539062 200.824219 L 172.496094 200.824219 C 171.851562 200.824219 171.277344 200.417969 171.058594 199.8125 L 169.679688 195.957031 L 167.984375 199.902344 C 167.746094 200.460938 167.191406 200.824219 166.582031 200.824219 L 149.109375 200.824219 C 148.265625 200.824219 147.585938 200.140625 147.585938 199.300781 C 147.585938 198.460938 148.265625 197.78125 149.109375 197.78125 L 165.578125 197.78125 L 168.40625 191.191406 C 168.652344 190.617188 169.226562 190.25 169.855469 190.273438 C 170.484375 190.292969 171.035156 190.691406 171.246094 191.28125 L 173.570312 197.78125 L 174.648438 197.78125 C 174.757812 197.78125 174.867188 197.792969 174.96875 197.816406 L 176.617188 153.117188 C 176.648438 152.308594 177.304688 151.664062 178.117188 151.652344 C 178.125 151.652344 178.132812 151.652344 178.140625 151.652344 C 178.941406 151.652344 179.609375 152.269531 179.664062 153.070312 L 183.253906 205.214844 L 183.882812 198.882812 C 183.960938 198.082031 184.648438 197.488281 185.457031 197.511719 L 191.941406 197.753906 C 192.753906 196.828125 194.421875 195.320312 196.804688 195.074219 C 199.042969 194.839844 201.289062 195.75 203.488281 197.78125 L 209.59375 197.78125 C 210.433594 197.78125 211.117188 198.460938 211.117188 199.300781 C 211.117188 200.140625 210.433594 200.824219 209.59375 200.824219 L 202.871094 200.824219 C 202.46875 200.824219 202.082031 200.664062 201.792969 200.378906 C 200.136719 198.726562 198.574219 197.957031 197.140625 198.097656 C 195.195312 198.289062 193.941406 200.121094 193.929688 200.140625 C 193.636719 200.578125 193.128906 200.839844 192.601562 200.824219 L 186.777344 200.605469 L 184.5 223.589844 C 184.421875 224.367188 183.761719 224.960938 182.980469 224.960938 " fill-opacity="1" fill-rule="nonzero"/></g><g clip-path="url(#id3)"><path fill="rgb(74.899292%, 10.5896%, 17.248535%)" d="M 221.785156 191.058594 L 221.433594 190.820312 C 221.394531 190.792969 217.347656 188.046875 213.359375 184.253906 C 211.007812 182.007812 209.125 179.84375 207.769531 177.808594 C 206.050781 175.210938 205.171875 172.800781 205.171875 170.660156 C 205.171875 165.789062 209.167969 161.824219 214.070312 161.824219 C 215.890625 161.824219 217.652344 162.378906 219.152344 163.433594 C 220.242188 164.199219 221.132812 165.175781 221.785156 166.300781 C 222.4375 165.171875 223.328125 164.191406 224.417969 163.433594 C 225.917969 162.378906 227.679688 161.824219 229.5 161.824219 C 234.402344 161.824219 238.398438 165.789062 238.398438 170.660156 L 238.398438 170.667969 C 238.375 172.792969 237.492188 175.183594 235.765625 177.777344 C 234.410156 179.808594 232.535156 181.976562 230.183594 184.226562 C 226.203125 188.035156 222.175781 190.792969 222.136719 190.820312 Z M 214.070312 163.058594 C 209.851562 163.058594 206.414062 166.46875 206.414062 170.660156 C 206.414062 172.554688 207.21875 174.726562 208.808594 177.117188 C 210.101562 179.070312 211.925781 181.171875 214.210938 183.347656 C 217.445312 186.429688 220.726562 188.8125 221.785156 189.554688 C 222.839844 188.808594 226.105469 186.410156 229.332031 183.320312 C 231.613281 181.136719 233.425781 179.042969 234.730469 177.089844 C 236.316406 174.703125 237.132812 172.542969 237.148438 170.660156 C 237.148438 166.46875 233.710938 163.066406 229.492188 163.066406 C 226.363281 163.066406 223.5 165.03125 222.355469 167.960938 L 221.777344 169.453125 L 221.207031 167.960938 C 220.0625 165.03125 217.199219 163.058594 214.070312 163.058594 Z M 214.070312 163.058594 " fill-opacity="1" fill-rule="nonzero"/></g><path stroke-linecap="round" transform="matrix(1.82553, -2.692625, 2.718467, 1.843051, 209.13194, 199.635397)" fill="none" stroke-linejoin="miter" d="M 0.499706 -0.000441331 L 6.436552 0.000276481 " stroke="rgb(1.179504%, 23.919678%, 40.779114%)" stroke-width="1" stroke-opacity="1" stroke-miterlimit="4"/><path stroke-linecap="round" transform="matrix(1.82553, -2.692625, 2.718467, 1.843051, 226.358382, 174.226688)" fill-opacity="1" fill="rgb(1.179504%, 23.919678%, 40.779114%)" fill-rule="nonzero" stroke-linejoin="round" d="M -2.50009 -1.499243 L -0.500363 0.000131412 L -2.500158 1.499678 Z M -2.50009 -1.499243 " stroke="rgb(1.179504%, 23.919678%, 40.779114%)" stroke-width="1" stroke-opacity="1" stroke-miterlimit="4"/></svg>